<svg xmlns="http://www.w3.org/2000/svg" viewBox="0 0 120 120">
  <rect x="0" y="0" width="120" height="120" rx="30" fill="#f0f7f0"/>
  <rect x="0" y="0" width="120" height="120" rx="30" fill="none" stroke="#2e8b4a" stroke-width="2.5"/>
  <path d="M60 18 C38 30 28 46 28 60 C28 80 41 94 60 102 C79 94 92 80 92 60 C92 46 82 30 60 18Z" fill="#2e8b4a"/>
  <line x1="60" y1="18" x2="60" y2="102" stroke="white" stroke-width="2.5"/>
  <line x1="60" y1="42" x2="44" y2="34" stroke="white" stroke-width="1.5"/>
  <line x1="60" y1="56" x2="38" y2="50" stroke="white" stroke-width="1.5"/>
  <line x1="60" y1="70" x2="42" y2="66" stroke="white" stroke-width="1.5"/>
  <line x1="60" y1="84" x2="46" y2="81" stroke="white" stroke-width="1.5"/>
  <line x1="60" y1="42" x2="76" y2="34" stroke="white" stroke-width="1.5"/>
  <line x1="60" y1="56" x2="82" y2="50" stroke="white" stroke-width="1.5"/>
  <line x1="60" y1="70" x2="78" y2="66" stroke="white" stroke-width="1.5"/>
  <line x1="60" y1="84" x2="74" y2="81" stroke="white" stroke-width="1.5"/>
</svg>
